<?xml version="1.0" encoding="UTF-8" standalone="no" ?>
<!DOCTYPE svg PUBLIC "-//W3C//DTD SVG 1.1//EN" "http://www.w3.org/Graphics/SVG/1.1/DTD/svg11.dtd">
<svg xmlns="http://www.w3.org/2000/svg" xmlns:xlink="http://www.w3.org/1999/xlink" version="1.1" width="500" height="500" viewBox="0 0 500 500" xml:space="preserve">
<desc>Created with Fabric.js 5.3.0</desc>
<defs>
</defs>
<g transform="matrix(0.6995919169 0 0 7.0973260715 83.0755841713 249.987285108)" id="frCbbot0BWIs4POt6lo6N"  >
<path style="stroke: rgb(110,237,45); stroke-width: 0; stroke-dasharray: none; stroke-linecap: butt; stroke-dashoffset: 0; stroke-linejoin: miter; stroke-miterlimit: 4; fill: rgb(255,255,255); fill-rule: nonzero; opacity: 1;"  transform=" translate(0, 0)" d="M -32.42542 -32.42542 L 32.42542 -32.42542 L 32.42542 32.42542 L -32.42542 32.42542 z" stroke-linecap="round" />
</g>
<g transform="matrix(0.5587189474 0.4210249257 -2.5490588177 3.382715304 329.9563774082 143.1637192316)" id="XouCFFf8RienzvCbOX6Eh"  >
<path style="stroke: rgb(110,237,45); stroke-width: 0; stroke-dasharray: none; stroke-linecap: butt; stroke-dashoffset: 0; stroke-linejoin: miter; stroke-miterlimit: 4; fill: rgb(255,255,255); fill-rule: nonzero; opacity: 1;"  transform=" translate(0, 0)" d="M -32.42542 -32.42542 L 32.42542 -32.42542 L 32.42542 32.42542 L -32.42542 32.42542 z" stroke-linecap="round" />
</g>
<g transform="matrix(0.699591917 0 0 7.0973260715 416.9244168979 250.0403823627)" id="MvmViuSs70OH63yDNCdCF"  >
<path style="stroke: rgb(110,237,45); stroke-width: 0; stroke-dasharray: none; stroke-linecap: butt; stroke-dashoffset: 0; stroke-linejoin: miter; stroke-miterlimit: 4; fill: rgb(255,255,255); fill-rule: nonzero; opacity: 1;"  transform=" translate(0, 0)" d="M -32.42542 -32.42542 L 32.42542 -32.42542 L 32.42542 32.42542 L -32.42542 32.42542 z" stroke-linecap="round" />
</g>
<g transform="matrix(0.5587189474 -0.4210249257 5.018247795 6.65943975 250.2551605853 250.3963307044)" id="6SQ_64UJdLfwVIMGYogNu"  >
<path style="stroke: rgb(110,237,45); stroke-width: 0; stroke-dasharray: none; stroke-linecap: butt; stroke-dashoffset: 0; stroke-linejoin: miter; stroke-miterlimit: 4; fill: rgb(255,255,255); fill-rule: nonzero; opacity: 1;"  transform=" translate(0, 0)" d="M -32.42542 -32.42542 L 32.42542 -32.42542 L 32.42542 32.42542 L -32.42542 32.42542 z" stroke-linecap="round" />
</g>
</svg>